<svg width="100" height="20" viewBox="0 0 100 20" fill="none" xmlns="http://www.w3.org/2000/svg">
<path d="M10 0L12.645 6.35942L19.5106 6.90983L14.2798 11.3906L15.8779 18.0902L10 14.5L4.12215 18.0902L5.72025 11.3906L0.489435 6.90983L7.35497 6.35942L10 0Z" fill="#FFAF39"/>
<path d="M30 0L32.645 6.35942L39.5106 6.90983L34.2798 11.3906L35.8779 18.0902L30 14.5L24.1221 18.0902L25.7202 11.3906L20.4894 6.90983L27.355 6.35942L30 0Z" fill="#FFAF39"/>
<path d="M50 0L52.645 6.35942L59.5106 6.90983L54.2798 11.3906L55.8779 18.0902L50 14.5L44.1221 18.0902L45.7202 11.3906L40.4894 6.90983L47.355 6.35942L50 0Z" fill="#FFAF39"/>
<path d="M70 0L72.645 6.35942L79.5106 6.90983L74.2798 11.3906L75.8779 18.0902L70 14.5L64.1221 18.0902L65.7202 11.3906L60.4894 6.90983L67.355 6.35942L70 0Z" fill="#FFAF39"/>
<path d="M90 0L92.645 6.35942L99.5106 6.90983L94.2798 11.3906L95.8779 18.0902L90 14.5L84.1221 18.0902L85.7202 11.3906L80.4894 6.90983L87.355 6.35942L90 0Z" fill="#FFAF39"/>
</svg>
